<mxfile host="app.diagrams.net" modified="2021-08-09T00:53:45.231Z" agent="5.0 (Windows NT 10.0; Win64; x64) AppleWebKit/537.36 (KHTML, like Gecko) Chrome/92.0.4515.131 Safari/537.36" etag="5PIY7jdOaJvFmdskBNng" version="14.9.4" type="github">
  <diagram id="GTijldaxyHPD2wgDFDSX" name="Page-1">
    <mxGraphModel dx="2197" dy="1800" grid="1" gridSize="10" guides="1" tooltips="1" connect="1" arrows="1" fold="1" page="1" pageScale="1" pageWidth="827" pageHeight="1169" math="0" shadow="0">
      <root>
        <mxCell id="0" />
        <mxCell id="1" parent="0" />
        <mxCell id="31M9rt8teQl0rHQ9-eUC-34" value="" style="ellipse;shape=cloud;whiteSpace=wrap;html=1;strokeWidth=1;fontSize=18;" vertex="1" parent="1">
          <mxGeometry x="270" y="-210" width="330" height="260" as="geometry" />
        </mxCell>
        <mxCell id="31M9rt8teQl0rHQ9-eUC-35" value="&lt;font style=&quot;font-size: 18px;&quot;&gt;&lt;b style=&quot;font-size: 18px;&quot;&gt;学习服务端&lt;/b&gt;&lt;/font&gt;" style="text;html=1;strokeColor=none;fillColor=none;align=center;verticalAlign=middle;whiteSpace=wrap;rounded=0;strokeWidth=1;fontSize=18;" vertex="1" parent="1">
          <mxGeometry x="354" y="-160" width="120" height="20" as="geometry" />
        </mxCell>
        <mxCell id="31M9rt8teQl0rHQ9-eUC-36" value="" style="group;strokeWidth=1;fontSize=18;" vertex="1" connectable="0" parent="1">
          <mxGeometry x="-40" y="220" width="310" height="130" as="geometry" />
        </mxCell>
        <mxCell id="31M9rt8teQl0rHQ9-eUC-37" value="" style="rounded=0;whiteSpace=wrap;html=1;strokeWidth=1;fontSize=18;" vertex="1" parent="31M9rt8teQl0rHQ9-eUC-36">
          <mxGeometry width="310" height="130" as="geometry" />
        </mxCell>
        <mxCell id="31M9rt8teQl0rHQ9-eUC-38" value="实体对齐" style="rounded=1;whiteSpace=wrap;html=1;strokeWidth=1;fontSize=18;" vertex="1" parent="31M9rt8teQl0rHQ9-eUC-36">
          <mxGeometry x="140" y="30" width="84.75" height="30" as="geometry" />
        </mxCell>
        <mxCell id="31M9rt8teQl0rHQ9-eUC-39" value="" style="shape=cylinder3;whiteSpace=wrap;html=1;boundedLbl=1;backgroundOutline=1;size=15;strokeWidth=1;fontSize=18;" vertex="1" parent="31M9rt8teQl0rHQ9-eUC-36">
          <mxGeometry x="62" y="80" width="170.5" height="40" as="geometry" />
        </mxCell>
        <mxCell id="31M9rt8teQl0rHQ9-eUC-40" style="edgeStyle=orthogonalEdgeStyle;rounded=0;orthogonalLoop=1;jettySize=auto;html=1;fontSize=18;" edge="1" parent="31M9rt8teQl0rHQ9-eUC-36" source="31M9rt8teQl0rHQ9-eUC-41" target="31M9rt8teQl0rHQ9-eUC-38">
          <mxGeometry relative="1" as="geometry">
            <Array as="points">
              <mxPoint x="182" y="80" />
              <mxPoint x="182" y="80" />
            </Array>
          </mxGeometry>
        </mxCell>
        <mxCell id="31M9rt8teQl0rHQ9-eUC-41" value="数据源1" style="text;html=1;strokeColor=none;fillColor=none;align=center;verticalAlign=middle;whiteSpace=wrap;rounded=0;strokeWidth=1;fontSize=18;" vertex="1" parent="31M9rt8teQl0rHQ9-eUC-36">
          <mxGeometry x="93" y="90" width="108.5" height="20" as="geometry" />
        </mxCell>
        <mxCell id="31M9rt8teQl0rHQ9-eUC-42" value="&lt;font style=&quot;font-size: 18px;&quot;&gt;&lt;b style=&quot;font-size: 18px;&quot;&gt;企业1&lt;/b&gt;&lt;/font&gt;" style="text;html=1;strokeColor=none;fillColor=none;align=center;verticalAlign=middle;whiteSpace=wrap;rounded=0;strokeWidth=1;fontSize=18;" vertex="1" parent="31M9rt8teQl0rHQ9-eUC-36">
          <mxGeometry width="77.5" height="20" as="geometry" />
        </mxCell>
        <mxCell id="31M9rt8teQl0rHQ9-eUC-43" value="联合模型形成" style="rounded=0;whiteSpace=wrap;html=1;strokeWidth=1;fontSize=18;" vertex="1" parent="1">
          <mxGeometry x="333.75" y="-95" width="222.5" height="30" as="geometry" />
        </mxCell>
        <mxCell id="31M9rt8teQl0rHQ9-eUC-44" value="" style="endArrow=none;dashed=1;html=1;dashPattern=1 4;strokeWidth=8;fontSize=18;" edge="1" parent="1">
          <mxGeometry width="50" height="50" relative="1" as="geometry">
            <mxPoint x="520.0000000000005" y="290" as="sourcePoint" />
            <mxPoint x="360.00000000000045" y="290" as="targetPoint" />
          </mxGeometry>
        </mxCell>
        <mxCell id="31M9rt8teQl0rHQ9-eUC-45" value="" style="group;strokeWidth=1;fontSize=18;" vertex="1" connectable="0" parent="1">
          <mxGeometry x="680" y="220" width="310" height="130" as="geometry" />
        </mxCell>
        <mxCell id="31M9rt8teQl0rHQ9-eUC-46" value="" style="rounded=0;whiteSpace=wrap;html=1;strokeWidth=1;fontSize=18;" vertex="1" parent="31M9rt8teQl0rHQ9-eUC-45">
          <mxGeometry width="310" height="130" as="geometry" />
        </mxCell>
        <mxCell id="31M9rt8teQl0rHQ9-eUC-47" value="实体对齐" style="rounded=1;whiteSpace=wrap;html=1;strokeWidth=1;fontSize=18;" vertex="1" parent="31M9rt8teQl0rHQ9-eUC-45">
          <mxGeometry x="140" y="30" width="84.75" height="30" as="geometry" />
        </mxCell>
        <mxCell id="31M9rt8teQl0rHQ9-eUC-48" value="" style="shape=cylinder3;whiteSpace=wrap;html=1;boundedLbl=1;backgroundOutline=1;size=15;strokeWidth=1;fontSize=18;" vertex="1" parent="31M9rt8teQl0rHQ9-eUC-45">
          <mxGeometry x="62" y="80" width="170.5" height="40" as="geometry" />
        </mxCell>
        <mxCell id="31M9rt8teQl0rHQ9-eUC-49" style="edgeStyle=orthogonalEdgeStyle;rounded=0;orthogonalLoop=1;jettySize=auto;html=1;fontSize=18;" edge="1" parent="31M9rt8teQl0rHQ9-eUC-45" source="31M9rt8teQl0rHQ9-eUC-50" target="31M9rt8teQl0rHQ9-eUC-47">
          <mxGeometry relative="1" as="geometry">
            <Array as="points">
              <mxPoint x="182" y="80" />
              <mxPoint x="182" y="80" />
            </Array>
          </mxGeometry>
        </mxCell>
        <mxCell id="31M9rt8teQl0rHQ9-eUC-50" value="数据源n" style="text;html=1;strokeColor=none;fillColor=none;align=center;verticalAlign=middle;whiteSpace=wrap;rounded=0;strokeWidth=1;fontSize=18;" vertex="1" parent="31M9rt8teQl0rHQ9-eUC-45">
          <mxGeometry x="93" y="90" width="108.5" height="20" as="geometry" />
        </mxCell>
        <mxCell id="31M9rt8teQl0rHQ9-eUC-51" value="" style="edgeStyle=orthogonalEdgeStyle;rounded=0;orthogonalLoop=1;jettySize=auto;html=1;fontSize=12;strokeWidth=1;" edge="1" parent="31M9rt8teQl0rHQ9-eUC-45" source="31M9rt8teQl0rHQ9-eUC-52" target="31M9rt8teQl0rHQ9-eUC-48">
          <mxGeometry relative="1" as="geometry" />
        </mxCell>
        <mxCell id="31M9rt8teQl0rHQ9-eUC-52" value="&lt;font style=&quot;font-size: 18px&quot;&gt;&lt;b style=&quot;font-size: 18px&quot;&gt;企业n&lt;/b&gt;&lt;/font&gt;" style="text;html=1;strokeColor=none;fillColor=none;align=center;verticalAlign=middle;whiteSpace=wrap;rounded=0;strokeWidth=1;fontSize=18;" vertex="1" parent="31M9rt8teQl0rHQ9-eUC-45">
          <mxGeometry width="77.5" height="20" as="geometry" />
        </mxCell>
        <mxCell id="31M9rt8teQl0rHQ9-eUC-53" value="" style="endArrow=none;dashed=1;html=1;dashPattern=1 3;strokeWidth=2;fontSize=12;exitX=1;exitY=0.5;exitDx=0;exitDy=0;entryX=0;entryY=0.5;entryDx=0;entryDy=0;" edge="1" parent="1" source="31M9rt8teQl0rHQ9-eUC-38" target="31M9rt8teQl0rHQ9-eUC-47">
          <mxGeometry width="50" height="50" relative="1" as="geometry">
            <mxPoint x="600" y="130" as="sourcePoint" />
            <mxPoint x="650" y="80" as="targetPoint" />
          </mxGeometry>
        </mxCell>
        <mxCell id="31M9rt8teQl0rHQ9-eUC-54" value="&lt;font style=&quot;font-size: 16px&quot;&gt;加密&lt;/font&gt;" style="text;html=1;strokeColor=none;fillColor=none;align=center;verticalAlign=middle;whiteSpace=wrap;rounded=0;fontSize=12;" vertex="1" parent="1">
          <mxGeometry x="425" y="250" width="40" height="20" as="geometry" />
        </mxCell>
        <mxCell id="31M9rt8teQl0rHQ9-eUC-55" value="" style="edgeStyle=orthogonalEdgeStyle;rounded=0;orthogonalLoop=1;jettySize=auto;html=1;fontSize=12;strokeWidth=1;entryX=0.513;entryY=0.976;entryDx=0;entryDy=0;entryPerimeter=0;" edge="1" parent="1" source="31M9rt8teQl0rHQ9-eUC-56" target="31M9rt8teQl0rHQ9-eUC-43">
          <mxGeometry relative="1" as="geometry">
            <Array as="points">
              <mxPoint x="448" y="80" />
              <mxPoint x="448" y="80" />
            </Array>
          </mxGeometry>
        </mxCell>
        <mxCell id="31M9rt8teQl0rHQ9-eUC-56" value="参数训练" style="rounded=0;whiteSpace=wrap;html=1;strokeWidth=1;fontSize=18;" vertex="1" parent="1">
          <mxGeometry x="323.75" y="110" width="222.5" height="30" as="geometry" />
        </mxCell>
        <mxCell id="31M9rt8teQl0rHQ9-eUC-57" value="" style="endArrow=classic;html=1;fontSize=12;strokeWidth=1;exitX=0.32;exitY=0.002;exitDx=0;exitDy=0;exitPerimeter=0;entryX=0.163;entryY=1;entryDx=0;entryDy=0;entryPerimeter=0;" edge="1" parent="1" source="31M9rt8teQl0rHQ9-eUC-39" target="31M9rt8teQl0rHQ9-eUC-56">
          <mxGeometry width="50" height="50" relative="1" as="geometry">
            <mxPoint x="360" y="80" as="sourcePoint" />
            <mxPoint x="410" y="30" as="targetPoint" />
            <Array as="points">
              <mxPoint x="77" y="190" />
              <mxPoint x="360" y="190" />
            </Array>
          </mxGeometry>
        </mxCell>
        <mxCell id="31M9rt8teQl0rHQ9-eUC-58" value="" style="endArrow=classic;html=1;fontSize=12;strokeWidth=1;entryX=0.862;entryY=1.1;entryDx=0;entryDy=0;entryPerimeter=0;exitX=0.196;exitY=0.033;exitDx=0;exitDy=0;exitPerimeter=0;" edge="1" parent="1" source="31M9rt8teQl0rHQ9-eUC-48" target="31M9rt8teQl0rHQ9-eUC-56">
          <mxGeometry width="50" height="50" relative="1" as="geometry">
            <mxPoint x="500" y="320" as="sourcePoint" />
            <mxPoint x="550" y="270" as="targetPoint" />
            <Array as="points">
              <mxPoint x="775" y="200" />
              <mxPoint x="516" y="200" />
            </Array>
          </mxGeometry>
        </mxCell>
      </root>
    </mxGraphModel>
  </diagram>
</mxfile>
